<?xml version="1.0" encoding="UTF-8"?>
<svg id="Layer_2" xmlns="http://www.w3.org/2000/svg" viewBox="0 0 318.48 306">
  <defs>
    <style>
      .cls-1 {
        fill: #fff;
      }
    </style>
  </defs>
  <g id="Layer_1-2" data-name="Layer_1">
    <g>
      <path class="cls-1" d="M250.08,111.43c-3.68-2.21-7.36-4.41-11.03-6.62-.74,0-1.47-2.21-1.47-2.94-5.15-28.69-16.92-54.43-36.78-75.76-2.21-2.21-4.41-4.41-6.62-6.62-.74,0-2.94-.74-3.68,0-37.51,17.65-60.31,47.81-68.4,88.26-8.09,42.66,2.94,80.17,33.83,111.06,16.92,16.18,36.78,27.95,60.31,32.36,19.86,3.68,38.25,0,55.16-8.83.74,0,1.47-.74,2.94-1.47,0,3.68.74,7.36.74,10.3s-1.47,2.21-2.21,2.21c-23.54,11.03-47.81,13.24-72.08,4.41-44.13-15.45-75.02-44.87-86.79-90.47-13.97-55.16,1.47-102.24,44.13-140.48,10.3-9.56,22.8-16.18,36.04-21.33,1.47,0,2.94-.74,3.68,0,26.48,25.01,43.4,55.16,51.49,91.2.74,3.68,1.47,7.36,1.47,11.77v3.68h0l-.74-.74Z"/>
      <path class="cls-1" d="M304.51,271.04v10.3c0,1.47-1.47,2.21-2.21,2.94-11.77,8.83-25.74,13.24-39.72,16.92-36.78,9.56-72.08,2.21-104.44-16.18-43.4-24.27-71.35-60.31-86.79-107.39-7.36-22.07-8.09-45.6-5.15-69.14,4.41-36.04,19.86-66.93,43.4-94.15,2.94-2.94,5.88-6.62,8.09-9.56,1.47-1.47,2.21-2.21,4.41-1.47,2.94.74,5.88,1.47,9.56,2.21-.74,1.47-2.21,2.21-2.94,2.94-17.65,17.65-32.36,36.78-41.19,59.58-21.33,55.16-14.71,106.65,19.12,155.19,24.27,34.57,56.64,57.37,97.82,66.2,32.36,7.36,63.25.74,91.94-16.18,2.21-1.47,4.41-2.94,7.36-5.15h0l.74,2.94Z"/>
      <path class="cls-1" d="M147.84,253.39c2.94-2.94,5.15-5.15,7.36-6.62,10.3,5.15,19.12,11.03,29.42,15.45,19.12,8.83,39.72,13.24,60.31,9.56,22.07-2.94,41.92-12.5,58.84-26.48.74,0,1.47-2.21,1.47-3.68-5.15-79.44-63.25-121.36-114.01-133.13-19.12-4.41-37.51-4.41-56.64-.74h-1.47c0-2.94.74-6.62,1.47-9.56,0-.74,1.47-1.47,2.94-1.47,11.77-2.21,24.27-2.94,36.78-1.47,33.1,2.94,62.52,15.45,88.26,36.04,30.16,24.27,47.81,55.9,53.69,94.15,1.47,7.36,1.47,14.71,2.21,21.33,0,.74,0,2.21-1.47,2.94-14.71,12.5-31.63,22.8-50.02,27.95-36.04,11.03-69.14,3.68-100.03-13.97-5.88-2.94-11.03-7.36-16.92-11.03h0l-2.21.74Z"/>
      <path class="cls-1" d="M169.17,4.78c-40.45,27.21-65.46,63.25-70.61,111.8-5.15,48.54,13.24,89,47.81,122.83-2.21,2.21-4.41,4.41-7.36,7.36-4.41-4.41-8.83-8.83-12.5-13.97-19.86-22.8-33.1-48.54-37.51-77.97-5.15-38.25,1.47-73.55,22.8-105.91,11.77-18.39,26.48-34.57,44.13-47.81,2.21-1.47,3.68-1.47,5.15,0,2.94,1.47,5.88,2.94,8.83,4.41h0l-.74-.74Z"/>
      <path class="cls-1" d="M52.96,132.76v1.47c0,4.41,1.47,8.83,0,13.24-1.47,3.68-5.88,5.88-8.09,9.56-19.12,22.07-30.89,47.81-33.83,77.23,0,6.62,0,11.03,6.62,15.45,17.65,10.3,35.3,19.86,55.16,23.54,13.97,2.21,27.21,2.21,41.19-2.21,2.21,0,3.68,0,5.15,1.47,2.21,2.21,4.41,4.41,8.09,7.36-7.36,1.47-13.24,3.68-19.12,4.41-30.89,5.15-58.84-2.21-84.58-17.65-7.36-4.41-13.97-9.56-21.33-13.97-2.21-2.94-2.21-3.68-2.21-5.88,0-38.25,13.97-71.35,38.98-99.3,4.41-5.15,8.83-9.56,13.97-13.97h0v-.74Z"/>
      <path class="cls-1" d="M130.92,151.88c0-3.68-.74-7.36-.74-10.3,10.3-2.94,19.86-4.41,30.16-3.68,25.01,0,47.07,8.09,67.67,23.54,16.92,12.5,30.89,27.95,38.98,47.07,2.21,5.88,3.68,12.5,5.88,19.12v2.21c-2.21,1.47-5.15,2.94-8.09,4.41-5.88-30.16-23.54-52.22-49.28-69.14-25.74-16.18-52.96-21.33-83.85-13.24h-.74Z"/>
      <path class="cls-1" d="M175.05,118.05c10.3.74,19.86,2.94,28.69,6.62,46.34,17.65,76.49,50.02,88.26,98.56,1.47,5.15,1.47,10.3,2.21,15.45,0,0,0,2.21-1.47,2.21-2.21,1.47-5.15,2.94-8.09,4.41,0-5.15-1.47-10.3-2.21-15.45-5.88-30.16-21.33-55.16-44.87-74.29-17.65-13.97-37.51-22.8-59.58-27.21-2.94,0-3.68-1.47-3.68-4.41v-6.62h0l.74.74Z"/>
      <path class="cls-1" d="M11.77,270.3c6.62,3.68,12.5,6.62,18.39,9.56,21.33,11.03,44.13,16.18,68.4,14.71,13.24,0,26.48-3.68,38.25-8.09,2.21-.74,3.68-.74,5.88,0,2.21,1.47,4.41,2.94,7.36,5.15-1.47.74-2.94,1.47-3.68,2.21-35.3,15.45-70.61,16.18-105.91,2.21-8.83-3.68-17.65-8.09-25.74-12.5-2.21-.74-2.21-2.21-2.21-4.41v-9.56h0l-.74.74Z"/>
      <path class="cls-1" d="M31.63,244.56c-1.47-.74-2.94-1.47-5.15-2.21-5.15-2.94-5.88-2.94-5.15-8.83,2.94-27.21,14.71-50.75,33.1-70.61h.74c.74,3.68,1.47,7.36,2.94,11.77,0,0,0,1.47-.74,2.21-16.18,19.86-25.01,42.66-25.74,68.4v1.47h0v-2.21Z"/>
      <path class="cls-1" d="M180.94,35.67c2.94-1.47,5.88-3.68,9.56-5.88,19.12,19.12,30.89,41.19,36.04,67.67-3.68-1.47-7.36-2.94-11.03-4.41,0,0-.74-.74-1.47-1.47-5.88-21.33-16.18-39.72-32.36-55.16l-.74-1.47v.74Z"/>
      <path class="cls-1" d="M42.66,238.68c2.21,1.47,4.41,2.21,5.88,2.94,15.45,8.09,32.36,11.77,50.02,8.83.74,0,1.47,0,2.94,1.47s0,0,0,.74c1.47,2.21,2.94,5.15,5.15,7.36-4.41,0-8.09,1.47-12.5,1.47-16.18,1.47-30.89-1.47-45.6-8.09-4.9-2.45-7.36-6.13-7.36-11.03v-3.68h1.47Z"/>
      <path class="cls-1" d="M194.18,165.86c3.68,2.21,6.62,3.68,9.56,5.88-6.62,18.39-16.92,34.57-31.63,47.81-2.94-2.21-5.15-4.41-8.09-6.62,13.97-13.24,24.27-27.95,30.16-47.07h0Z"/>
      <path class="cls-1" d="M213.3,176.89c1.47,1.47,2.94,2.94,4.41,3.68,3.68,1.47,2.94,4.41,1.47,7.36-5.88,13.97-14.71,26.48-25.01,38.25l-2.94,2.94-1.47.74c-2.94-1.47-5.88-2.94-8.83-5.15,13.97-13.97,24.27-29.42,31.63-47.81h.74Z"/>
      <path class="cls-1" d="M202.27,89.37c-4.41-.74-7.36-1.47-11.03-2.21-.74,0-1.47-1.47-2.21-2.94-4.41-10.3-10.3-19.12-17.65-27.21-2.94-2.94-5.88-5.15-8.83-8.09,2.94-2.21,5.15-4.41,8.09-7.36,14.71,12.5,25.01,28.69,30.89,47.07h0l.74.74Z"/>
      <path class="cls-1" d="M201.53,235c11.77-13.24,22.07-27.21,28.69-44.13,2.94,2.21,5.15,4.41,7.36,7.36v2.94c-5.88,13.24-13.97,25.01-23.54,36.78-.74,1.47-2.21,1.47-3.68.74-2.94-1.47-5.88-2.21-8.83-3.68Z"/>
      <path class="cls-1" d="M52.96,233.53c-2.94-1.47-5.15-2.94-8.09-4.41,0,0-1.47-2.21-.74-2.94,2.94-13.97,8.83-26.48,19.12-37.51,1.47,3.68,2.94,7.36,4.41,11.03,0,0,0,1.47-.74,2.21-8.09,8.83-11.77,19.86-13.97,32.36h0v-.74Z"/>
      <path class="cls-1" d="M158.14,187.93c-5.88,0-11.03-5.15-11.03-11.03s5.15-11.03,11.03-11.03,11.03,5.15,11.03,11.03-4.41,11.03-11.03,11.03h0Z"/>
      <path class="cls-1" d="M141.22,128.35c-3.68.74-7.36,1.47-11.77,2.21v-8.83s.74-1.47,1.47-1.47c2.94,0,6.62-1.47,9.56-1.47v10.3h0l.74-.74Z"/>
      <path class="cls-1" d="M153.72,126.88v-10.3h9.56v8.83l-1.47,1.47c-2.21,0-5.15,0-8.09,0Z"/>
    </g>
  </g>
</svg>